<?xml version="1.0" standalone="yes"?>
<svg xmlns="http://www.w3.org/2000/svg" width="500" height="500">
<path style="fill:#ffffff; stroke:none;" d="M0 0L0 500L500 500L500 0L0 0z"/>
<path style="fill:#efe4e5; stroke:none;" d="M301.667 174.333L302.333 174.667L301.667 174.333z"/>
<path style="fill:#fcc6e7; stroke:none;" d="M303 174L303 175L306 175L303 174z"/>
<path style="fill:#ffa9de; stroke:none;" d="M306 174L306 175L315 175L306 174z"/>
<path style="fill:#fcc6e7; stroke:none;" d="M315 174L315 175L320 175L315 174z"/>
<path style="fill:#efe4e5; stroke:none;" d="M320 174L320 175L324 175L320 174M293 175L294 176L293 175z"/>
<path style="fill:#fcc6e7; stroke:none;" d="M294 175L295 176L294 175z"/>
<path style="fill:#ffa9de; stroke:none;" d="M295 175L295 176L298 176L295 175z"/>
<path style="fill:#ff68c5; stroke:none;" d="M310 231L310 230C295.335 225.007 255.363 206.882 275.105 187.105C277.38 184.826 280.098 183.155 283 181.796C286.783 180.025 290.888 179.088 295 178.439C318.888 174.67 339.427 185.175 360 196L362 182C332.481 177.657 301.93 168.233 273 181.89C253.502 191.095 246.877 218.326 269 229.682C279.008 234.819 298.835 231 310 231z"/>
<path style="fill:#ffa9de; stroke:none;" d="M327.667 175.333L328.333 175.667L327.667 175.333z"/>
<path style="fill:#fcc6e7; stroke:none;" d="M329.667 175.333L330.333 175.667L329.667 175.333z"/>
<path style="fill:#efe4e5; stroke:none;" d="M331 175L332 176L331 175M288 176L289 177L288 176z"/>
<path style="fill:#ffa9de; stroke:none;" d="M289.667 176.333L290.333 176.667L289.667 176.333M335.667 176.333L336.333 176.667L335.667 176.333z"/>
<path style="fill:#fcc6e7; stroke:none;" d="M337.667 176.333L338.333 176.667L337.667 176.333M133 177L133 178L194 178L174 177L133 177z"/>
<path style="fill:#efe4e5; stroke:none;" d="M194.667 177.333L195.333 177.667L194.667 177.333z"/>
<path style="fill:#fcc6e7; stroke:none;" d="M284 177L285 178L284 177z"/>
<path style="fill:#ffa9de; stroke:none;" d="M285 177L286 178L285 177M303 177L303 178L311 178L303 177M341.667 177.333L342.333 177.667L341.667 177.333z"/>
<path style="fill:#fcc6e7; stroke:none;" d="M343 177L344 178L343 177z"/>
<path style="fill:#efe4e5; stroke:none;" d="M344 177L345 178L344 177z"/>
<path style="fill:#ff68c5; stroke:none;" d="M133 178L133 231L153 231L153 180C179.088 180 213.289 179.757 213.985 215C214.096 220.642 212.702 225.676 211 231C215.307 231 222.861 232.448 226.581 229.972C230.204 227.561 230.686 220.91 231.035 217C232.22 203.751 227.834 191.042 216 183.93C205.297 177.497 193.007 178 181 178L133 178z"/>
<path style="fill:#ffa9de; stroke:none;" d="M199.667 178.333L200.333 178.667L199.667 178.333z"/>
<path style="fill:#fcc6e7; stroke:none;" d="M201 178L202 179L201 178z"/>
<path style="fill:#efe4e5; stroke:none;" d="M202 178L203 179L202 178M280 178L281 179L280 178z"/>
<path style="fill:#fcc6e7; stroke:none;" d="M281 178L282 179L281 178z"/>
<path style="fill:#ffa9de; stroke:none;" d="M282 178L283 179L282 178M294.667 178.333L295.333 178.667L294.667 178.333z"/>
<path style="fill:#fcc6e7; stroke:none;" d="M296 178L297 179L296 178z"/>
<path style="fill:#efe4e5; stroke:none;" d="M297 178L298 179L297 178M314 178L315 179L314 178z"/>
<path style="fill:#fcc6e7; stroke:none;" d="M315 178L316 179L315 178z"/>
<path style="fill:#ffa9de; stroke:none;" d="M316.667 178.333L317.333 178.667L316.667 178.333M346.667 178.333L347.333 178.667L346.667 178.333z"/>
<path style="fill:#fcc6e7; stroke:none;" d="M348 178L349 179L348 178z"/>
<path style="fill:#ffa9de; stroke:none;" d="M205 179L206 180L205 179z"/>
<path style="fill:#efe4e5; stroke:none;" d="M206 179L207 180L206 179z"/>
<path style="fill:#fcc6e7; stroke:none;" d="M278 179L279 180L278 179z"/>
<path style="fill:#ffa9de; stroke:none;" d="M289 179L290 180L289 179z"/>
<path style="fill:#fcc6e7; stroke:none;" d="M290 179L291 180L290 179z"/>
<path style="fill:#efe4e5; stroke:none;" d="M291 179L292 180L291 179M320 179L321 180L320 179z"/>
<path style="fill:#ffa9de; stroke:none;" d="M321.667 179.333L322.333 179.667L321.667 179.333M351 179L352 180L351 179z"/>
<path style="fill:#fcc6e7; stroke:none;" d="M352 179L353 180L352 179z"/>
<path style="fill:#efe4e5; stroke:none;" d="M353 179L354 180L353 179z"/>
<path style="fill:#fcc6e7; stroke:none;" d="M153 180L153 181L179 181L153 180z"/>
<path style="fill:#ffa9de; stroke:none;" d="M179 180L179 181L184 181L179 180M208 180L209 181L208 180z"/>
<path style="fill:#efe4e5; stroke:none;" d="M209 180L210 181L209 180M275 180L276 181L275 180z"/>
<path style="fill:#ffa9de; stroke:none;" d="M276 180L277 181L276 180M285 180L286 181L285 180z"/>
<path style="fill:#fcc6e7; stroke:none;" d="M286 180L287 181L286 180z"/>
<path style="fill:#efe4e5; stroke:none;" d="M287 180L288 181L287 180M324 180L325 181L324 180z"/>
<path style="fill:#ffa9de; stroke:none;" d="M325 180L326 181L325 180M355 180L356 181L355 180z"/>
<path style="fill:#fcc6e7; stroke:none;" d="M356 180L357 181L356 180z"/>
<path style="fill:#efe4e5; stroke:none;" d="M186 181L187 182L186 181z"/>
<path style="fill:#fcc6e7; stroke:none;" d="M187 181L188 182L187 181z"/>
<path style="fill:#ffa9de; stroke:none;" d="M188 181L189 182L188 181z"/>
<path style="fill:#fcc6e7; stroke:none;" d="M211 181L212 182L211 181M273 181L274 182L273 181z"/>
<path style="fill:#ffa9de; stroke:none;" d="M283 181L284 182L283 181z"/>
<path style="fill:#efe4e5; stroke:none;" d="M284 181L285 182L284 181M327 181L328 182L327 181z"/>
<path style="fill:#ffa9de; stroke:none;" d="M328 181L329 182L328 181M358.667 181.333L359.333 181.667L358.667 181.333z"/>
<path style="fill:#efe4e5; stroke:none;" d="M360 181L361 182L360 181M190 182L191 183L190 182z"/>
<path style="fill:#ffa9de; stroke:none;" d="M191 182L192 183L191 182M213 182L214 183L213 182z"/>
<path style="fill:#fcc6e7; stroke:none;" d="M271 182L272 183L271 182M281 182L282 183L281 182z"/>
<path style="fill:#efe4e5; stroke:none;" d="M330 182L331 183L330 182z"/>
<path style="fill:#fcc6e7; stroke:none;" d="M331 182L332 183L331 182z"/>
<path style="fill:#efe4e5; stroke:none;" d="M193 183L194 184L193 183z"/>
<path style="fill:#ffa9de; stroke:none;" d="M194 183L195 184L194 183z"/>
<path style="fill:#fcc6e7; stroke:none;" d="M215 183L216 184L215 183M269 183L270 184L269 183M279 183L280 184L279 183z"/>
<path style="fill:#efe4e5; stroke:none;" d="M333 183L334 184L333 183z"/>
<path style="fill:#ffa9de; stroke:none;" d="M334 183L335 184L334 183z"/>
<path style="fill:#efe4e5; stroke:none;" d="M195 184L196 185L195 184z"/>
<path style="fill:#ffa9de; stroke:none;" d="M196 184L197 185L196 184z"/>
<path style="fill:#efe4e5; stroke:none;" d="M217 184L218 185L217 184z"/>
<path style="fill:#ffa9de; stroke:none;" d="M268 184L269 185L268 184M277 184L278 185L277 184z"/>
<path style="fill:#efe4e5; stroke:none;" d="M278 184L279 185L278 184z"/>
<path style="fill:#fcc6e7; stroke:none;" d="M336 184L337 185L336 184z"/>
<path style="fill:#ffa9de; stroke:none;" d="M337 184L338 185L337 184M361.333 184.667L361.667 185.333L361.333 184.667z"/>
<path style="fill:#efe4e5; stroke:none;" d="M197 185L198 186L197 185z"/>
<path style="fill:#ffa9de; stroke:none;" d="M198 185L199 186L198 185M218 185L219 186L218 185z"/>
<path style="fill:#fcc6e7; stroke:none;" d="M266 185L267 186L266 185z"/>
<path style="fill:#ffa9de; stroke:none;" d="M276 185L277 186L276 185z"/>
<path style="fill:#efe4e5; stroke:none;" d="M338 185L339 186L338 185z"/>
<path style="fill:#ffa9de; stroke:none;" d="M339 185L340 186L339 185z"/>
<path style="fill:#fcc6e7; stroke:none;" d="M199 186L200 187L199 186z"/>
<path style="fill:#ffa9de; stroke:none;" d="M219 186L220 187L219 186M265 186L266 187L265 186z"/>
<path style="fill:#fcc6e7; stroke:none;" d="M275 186L276 187L275 186z"/>
<path style="fill:#ffa9de; stroke:none;" d="M341 186L342 187L341 186z"/>
<path style="fill:#fcc6e7; stroke:none;" d="M361.333 186.667L361.667 187.333L361.333 186.667z"/>
<path style="fill:#efe4e5; stroke:none;" d="M200 187L201 188L200 187M221 187L222 188L221 187M263 187L264 188L263 187z"/>
<path style="fill:#fcc6e7; stroke:none;" d="M274 187L275 188L274 187M343 187L344 188L343 187z"/>
<path style="fill:#ffa9de; stroke:none;" d="M202 188L203 189L202 188z"/>
<path style="fill:#efe4e5; stroke:none;" d="M222 188L223 189L222 188M262 188L263 189L262 188z"/>
<path style="fill:#fcc6e7; stroke:none;" d="M273 188L274 189L273 188M345 188L346 189L345 188z"/>
<path style="fill:#ffa9de; stroke:none;" d="M346 188L347 189L346 188z"/>
<path style="fill:#efe4e5; stroke:none;" d="M361 188L362 189L361 188z"/>
<path style="fill:#ffa9de; stroke:none;" d="M203 189L204 190L203 189z"/>
<path style="fill:#efe4e5; stroke:none;" d="M223 189L224 190L223 189M261 189L262 190L261 189z"/>
<path style="fill:#ffa9de; stroke:none;" d="M272 189L273 190L272 189z"/>
<path style="fill:#fcc6e7; stroke:none;" d="M347 189L348 190L347 189z"/>
<path style="fill:#ffa9de; stroke:none;" d="M204 190L205 191L204 190z"/>
<path style="fill:#efe4e5; stroke:none;" d="M260 190L261 191L260 190z"/>
<path style="fill:#fcc6e7; stroke:none;" d="M349 190L350 191L349 190z"/>
<path style="fill:#ffa9de; stroke:none;" d="M205 191L206 192L205 191M224 191L225 192L224 191z"/>
<path style="fill:#fcc6e7; stroke:none;" d="M271 191L272 192L271 191M351 191L352 192L351 191z"/>
<path style="fill:#ffa9de; stroke:none;" d="M360 191L360 194L361 194L360 191M225 192L226 193L225 192M259 192L260 193L259 192z"/>
<path style="fill:#fcc6e7; stroke:none;" d="M353 192L354 193L353 192z"/>
<path style="fill:#efe4e5; stroke:none;" d="M226 193L227 194L226 193z"/>
<path style="fill:#fcc6e7; stroke:none;" d="M258 193L259 194L258 193z"/>
<path style="fill:#ffa9de; stroke:none;" d="M270 193L271 194L270 193M355 193L356 194L355 193z"/>
<path style="fill:#fcc6e7; stroke:none;" d="M207 194L208 195L207 194z"/>
<path style="fill:#efe4e5; stroke:none;" d="M257 194L258 195L257 194M270 194L271 195L270 194M356 194L357 195L356 194z"/>
<path style="fill:#ffa9de; stroke:none;" d="M357 194L358 195L357 194z"/>
<path style="fill:#fcc6e7; stroke:none;" d="M360 194L361 195L360 194z"/>
<path style="fill:#ffa9de; stroke:none;" d="M208 195L209 196L208 195M227 195L228 196L227 195M257 195L258 196L257 195z"/>
<path style="fill:#efe4e5; stroke:none;" d="M358 195L359 196L358 195M360 195L361 196L360 195M256 196L257 197L256 196z"/>
<path style="fill:#ffa9de; stroke:none;" d="M209 197L210 198L209 197M228 197L229 198L228 197M256 197L257 198L256 197M269 197L269 200L270 200L269 197M210 199L211 200L210 199z"/>
<path style="fill:#fcc6e7; stroke:none;" d="M229 199L230 200L229 199M255 199L256 200L255 199z"/>
<path style="fill:#efe4e5; stroke:none;" d="M210 200L211 201L210 200z"/>
<path style="fill:#ffa9de; stroke:none;" d="M229 200L230 201L229 200M255 200L256 201L255 200M211 201L212 202L211 201z"/>
<path style="fill:#efe4e5; stroke:none;" d="M230 201L231 202L230 201z"/>
<path style="fill:#fcc6e7; stroke:none;" d="M211 202L212 203L211 202M230 202L231 203L230 202z"/>
<path style="fill:#efe4e5; stroke:none;" d="M254 202L255 203L254 202M270 202L271 203L270 202z"/>
<path style="fill:#ffa9de; stroke:none;" d="M230 203L231 204L230 203z"/>
<path style="fill:#fcc6e7; stroke:none;" d="M254 203L255 204L254 203z"/>
<path style="fill:#ffa9de; stroke:none;" d="M270 203L271 204L270 203M212 204L213 205L212 204M254 204L254 211L255 211L254 204z"/>
<path style="fill:#fcc6e7; stroke:none;" d="M212 205L213 206L212 205z"/>
<path style="fill:#efe4e5; stroke:none;" d="M231 205L232 206L231 205z"/>
<path style="fill:#fcc6e7; stroke:none;" d="M271 205L272 206L271 205z"/>
<path style="fill:#efe4e5; stroke:none;" d="M212 206L213 207L212 206z"/>
<path style="fill:#fcc6e7; stroke:none;" d="M231.333 206.667L231.667 207.333L231.333 206.667z"/>
<path style="fill:#ffa9de; stroke:none;" d="M272 207L273 208L272 207M231 208L231 212L232 212L231 208M273 208L274 209L273 208M213.333 209.667L213.667 210.333L213.333 209.667z"/>
<path style="fill:#fcc6e7; stroke:none;" d="M274 209L275 210L274 209M275 210L276 211L275 210M213 211L213 214L214 214L213 211M254 211L255 212L254 211M276 211L277 212L276 211z"/>
<path style="fill:#efe4e5; stroke:none;" d="M254 212L255 213L254 212z"/>
<path style="fill:#fcc6e7; stroke:none;" d="M277 212L278 213L277 212z"/>
<path style="fill:#ffa9de; stroke:none;" d="M231 213L231 217L232 217L231 213M278 213L279 214L278 213z"/>
<path style="fill:#efe4e5; stroke:none;" d="M213 214L213 217L214 217L213 214z"/>
<path style="fill:#ffa9de; stroke:none;" d="M255 214L256 215L255 214z"/>
<path style="fill:#efe4e5; stroke:none;" d="M280 214L281 215L280 214M255 215L256 216L255 215z"/>
<path style="fill:#fcc6e7; stroke:none;" d="M281 215L282 216L281 215z"/>
<path style="fill:#ffa9de; stroke:none;" d="M256 216L257 217L256 216M282 216L283 217L282 216z"/>
<path style="fill:#fcc6e7; stroke:none;" d="M213.333 217.667L213.667 218.333L213.333 217.667M231.333 217.667L231.667 218.333L231.333 217.667z"/>
<path style="fill:#efe4e5; stroke:none;" d="M256 217L257 218L256 217z"/>
<path style="fill:#fcc6e7; stroke:none;" d="M284 217L285 218L284 217z"/>
<path style="fill:#ffa9de; stroke:none;" d="M257 218L258 219L257 218z"/>
<path style="fill:#efe4e5; stroke:none;" d="M286 218L287 219L286 218z"/>
<path style="fill:#ffa9de; stroke:none;" d="M213 219L213 223L214 223L213 219M287 219L288 220L287 219z"/>
<path style="fill:#efe4e5; stroke:none;" d="M288 219L289 220L288 219z"/>
<path style="fill:#fcc6e7; stroke:none;" d="M258 220L259 221L258 220z"/>
<path style="fill:#ffa9de; stroke:none;" d="M289 220L290 221L289 220M230 221L231 222L230 221M259 221L260 222L259 221M291 221L292 222L291 221z"/>
<path style="fill:#fcc6e7; stroke:none;" d="M230 222L231 223L230 222z"/>
<path style="fill:#ffa9de; stroke:none;" d="M260 222L261 223L260 222z"/>
<path style="fill:#fcc6e7; stroke:none;" d="M293 222L294 223L293 222z"/>
<path style="fill:#efe4e5; stroke:none;" d="M230 223L231 224L230 223z"/>
<path style="fill:#ffa9de; stroke:none;" d="M261 223L262 224L261 223z"/>
<path style="fill:#fcc6e7; stroke:none;" d="M295 223L296 224L295 223z"/>
<path style="fill:#efe4e5; stroke:none;" d="M212 224L213 225L212 224z"/>
<path style="fill:#ffa9de; stroke:none;" d="M262 224L263 225L262 224z"/>
<path style="fill:#fcc6e7; stroke:none;" d="M297 224L298 225L297 224M212 225L213 226L212 225z"/>
<path style="fill:#ffa9de; stroke:none;" d="M229 225L230 226L229 225M263 225L264 226L263 225M299 225L300 226L299 225M212 226L213 227L212 226z"/>
<path style="fill:#efe4e5; stroke:none;" d="M229 226L230 227L229 226z"/>
<path style="fill:#ffa9de; stroke:none;" d="M264 226L265 227L264 226M301 226L302 227L301 226z"/>
<path style="fill:#fcc6e7; stroke:none;" d="M265 227L266 228L265 227z"/>
<path style="fill:#ffa9de; stroke:none;" d="M303 227L304 228L303 227z"/>
<path style="fill:#efe4e5; stroke:none;" d="M304 227L305 228L304 227M211 228L212 229L211 228z"/>
<path style="fill:#fcc6e7; stroke:none;" d="M228 228L229 229L228 228z"/>
<path style="fill:#efe4e5; stroke:none;" d="M266 228L267 229L266 228z"/>
<path style="fill:#ffa9de; stroke:none;" d="M305 228L306 229L305 228z"/>
<path style="fill:#efe4e5; stroke:none;" d="M306 228L307 229L306 228z"/>
<path style="fill:#ffa9de; stroke:none;" d="M211 229L212 230L211 229M268 229L269 230L268 229z"/>
<path style="fill:#fcc6e7; stroke:none;" d="M308 229L309 230L308 229M227 230L228 231L227 230M269 230L270 231L269 230M310 230L312 232L310 230z"/>
<path style="fill:#ffa9de; stroke:none;" d="M133 231L133 232L153 232L133 231z"/>
<path style="fill:#efe4e5; stroke:none;" d="M210 231L211 232L210 231z"/>
<path style="fill:#ffa9de; stroke:none;" d="M211 231L211 232L226 232L211 231z"/>
<path style="fill:#fcc6e7; stroke:none;" d="M226 231L227 232L226 231z"/>
<path style="fill:#efe4e5; stroke:none;" d="M271 231L272 232L271 231z"/>
<path style="fill:#ffa9de; stroke:none;" d="M272 231L272 232L311 232C300.726 227.689 283.172 231 272 231z"/>
<path style="fill:#efe4e5; stroke:none;" d="M312 231L313 232L312 231M227 240L227 255L240 255L240 254L228 254L228 248L239 248L239 247L228 247L228 241L240 241L227 240M245 240L245 241L251 241L251 255L253 255L253 241L259 241L245 240M265 240L265 255L266 255L266 248L279 248L279 255L280 255L280 240L279 240L279 247L266 247L265 240M65 249L65 251L106 251L106 249L65 249M395 249L395 251L436 251L436 249L395 249z"/>
<path style="fill:#ffa9de; stroke:none;" d="M133 268L133 269L153 269L133 268M193 270L213 269C208.604 267.155 196.286 266.24 193 270z"/>
<path style="fill:#fcc6e7; stroke:none;" d="M213 268L214 269L213 268M342 268L343 269L342 268z"/>
<path style="fill:#ffa9de; stroke:none;" d="M343 268L343 269L366 269L343 268z"/>
<path style="fill:#fcc6e7; stroke:none;" d="M366 268L367 269L366 268z"/>
<path style="fill:#ff68c5; stroke:none;" d="M133 269L133 318L153 318L153 269L133 269M194 269L210.753 304L218.529 316.972L237 318L220.753 283L213.363 270.028L194 269z"/>
<path style="fill:#efe4e5; stroke:none;" d="M214 269L215 270L214 269M342 269L345 272L342 269z"/>
<path style="fill:#ff68c5; stroke:none;" d="M343 269C346.282 273.82 350.127 278.145 351.471 284C357.306 309.422 327.341 318.266 308 316.91C288.714 315.559 274.339 303.348 257 297C256.991 300.351 255.234 306.629 257.067 309.49C260.429 314.737 275.3 316.078 281 317.196C305.149 321.932 336.506 323.682 356.999 307.482C364.322 301.693 377.491 278.485 366.297 270.028C361.704 266.557 348.63 269 343 269z"/>
<path style="fill:#efe4e5; stroke:none;" d="M367 269L368 270L367 269M193 270L194 271L193 270z"/>
<path style="fill:#ffa9de; stroke:none;" d="M214 270L215 271L214 270M367 270L368 271L367 270M194 271L195 272L194 271z"/>
<path style="fill:#efe4e5; stroke:none;" d="M215 271L216 272L215 271M368 271L369 272L368 271M194 272L195 273L194 272z"/>
<path style="fill:#ffa9de; stroke:none;" d="M215 272L216 273L215 272z"/>
<path style="fill:#fcc6e7; stroke:none;" d="M345 272L346 273L345 272M368 272L369 273L368 272z"/>
<path style="fill:#ffa9de; stroke:none;" d="M195 273L196 274L195 273z"/>
<path style="fill:#efe4e5; stroke:none;" d="M216 273L217 274L216 273z"/>
<path style="fill:#ffa9de; stroke:none;" d="M346 273L347 274L346 273M368 273L369 274L368 273z"/>
<path style="fill:#efe4e5; stroke:none;" d="M195 274L196 275L195 274z"/>
<path style="fill:#ffa9de; stroke:none;" d="M216 274L217 275L216 274M347 274L348 275L347 274M196 275L197 276L196 275z"/>
<path style="fill:#efe4e5; stroke:none;" d="M217 275L218 276L217 275M347 275L348 276L347 275M369 275L370 276L369 275M196 276L197 277L196 276z"/>
<path style="fill:#ffa9de; stroke:none;" d="M217 276L218 277L217 276M348 276L349 277L348 276z"/>
<path style="fill:#fcc6e7; stroke:none;" d="M369 276L370 277L369 276z"/>
<path style="fill:#ffa9de; stroke:none;" d="M197 277L198 278L197 277z"/>
<path style="fill:#efe4e5; stroke:none;" d="M218 277L219 278L218 277z"/>
<path style="fill:#ffa9de; stroke:none;" d="M369 277L369 283L370 283L369 277z"/>
<path style="fill:#efe4e5; stroke:none;" d="M197 278L198 279L197 278z"/>
<path style="fill:#ffa9de; stroke:none;" d="M218 278L219 279L218 278z"/>
<path style="fill:#fcc6e7; stroke:none;" d="M349 278L350 279L349 278z"/>
<path style="fill:#ffa9de; stroke:none;" d="M198 279L199 280L198 279M219 280L220 281L219 280M350 280L351 281L350 280M199 281L200 282L199 281z"/>
<path style="fill:#efe4e5; stroke:none;" d="M350 281L351 282L350 281z"/>
<path style="fill:#ffa9de; stroke:none;" d="M220 282L221 283L220 282M200 283L201 284L200 283M351.333 283.667L351.667 284.333L351.333 283.667M221 284L222 285L221 284M369.333 284.667L369.667 285.333L369.333 284.667M201 285L202 286L201 285z"/>
<path style="fill:#fcc6e7; stroke:none;" d="M351 285L352 286L351 285z"/>
<path style="fill:#ffa9de; stroke:none;" d="M222 286L223 287L222 286z"/>
<path style="fill:#efe4e5; stroke:none;" d="M351 286L352 287L351 286z"/>
<path style="fill:#fcc6e7; stroke:none;" d="M369.333 286.667L369.667 287.333L369.333 286.667z"/>
<path style="fill:#ffa9de; stroke:none;" d="M202 287L203 288L202 287M223 288L224 289L223 288z"/>
<path style="fill:#efe4e5; stroke:none;" d="M369 288L370 289L369 288z"/>
<path style="fill:#ffa9de; stroke:none;" d="M203 289L204 290L203 289M224 290L225 291L224 290M368 290L369 291L368 290M204 291L205 292L204 291z"/>
<path style="fill:#fcc6e7; stroke:none;" d="M368 291L369 292L368 291z"/>
<path style="fill:#ffa9de; stroke:none;" d="M225 292L226 293L225 292z"/>
<path style="fill:#efe4e5; stroke:none;" d="M351 292L352 293L351 292z"/>
<path style="fill:#ffa9de; stroke:none;" d="M205 293L206 294L205 293z"/>
<path style="fill:#fcc6e7; stroke:none;" d="M351.333 293.667L351.667 294.333L351.333 293.667z"/>
<path style="fill:#ffa9de; stroke:none;" d="M367 293L368 294L367 293z"/>
<path style="fill:#fcc6e7; stroke:none;" d="M226 294L227 295L226 294M367 294L368 295L367 294M206 295L207 296L206 295z"/>
<path style="fill:#ffa9de; stroke:none;" d="M351 295L352 296L351 295z"/>
<path style="fill:#fcc6e7; stroke:none;" d="M227 296L228 297L227 296M257 296L258 297L257 296M366 296L367 297L366 296M207 297L208 298L207 297M259 297L260 298L259 297z"/>
<path style="fill:#efe4e5; stroke:none;" d="M350 297L351 298L350 297z"/>
<path style="fill:#fcc6e7; stroke:none;" d="M228 298L229 299L228 298z"/>
<path style="fill:#ffa9de; stroke:none;" d="M260 298L261 299L260 298z"/>
<path style="fill:#efe4e5; stroke:none;" d="M261 298L262 299L261 298z"/>
<path style="fill:#ffa9de; stroke:none;" d="M350 298L351 299L350 298z"/>
<path style="fill:#efe4e5; stroke:none;" d="M365 298L366 299L365 298z"/>
<path style="fill:#fcc6e7; stroke:none;" d="M208 299L209 300L208 299z"/>
<path style="fill:#ffa9de; stroke:none;" d="M262 299L263 300L262 299M364 299L365 300L364 299z"/>
<path style="fill:#fcc6e7; stroke:none;" d="M229 300L230 301L229 300z"/>
<path style="fill:#efe4e5; stroke:none;" d="M256.333 300.667L256.667 301.333L256.333 300.667z"/>
<path style="fill:#fcc6e7; stroke:none;" d="M264 300L265 301L264 300z"/>
<path style="fill:#ffa9de; stroke:none;" d="M349 300L350 301L349 300z"/>
<path style="fill:#fcc6e7; stroke:none;" d="M209 301L210 302L209 301z"/>
<path style="fill:#ffa9de; stroke:none;" d="M265 301L266 302L265 301z"/>
<path style="fill:#efe4e5; stroke:none;" d="M266 301L267 302L266 301M348 301L349 302L348 301M363 301L364 302L363 301z"/>
<path style="fill:#fcc6e7; stroke:none;" d="M230 302L231 303L230 302M256 302L257 303L256 302z"/>
<path style="fill:#ffa9de; stroke:none;" d="M267 302L268 303L267 302z"/>
<path style="fill:#efe4e5; stroke:none;" d="M268 302L269 303L268 302z"/>
<path style="fill:#ffa9de; stroke:none;" d="M348 302L349 303L348 302z"/>
<path style="fill:#fcc6e7; stroke:none;" d="M362 302L363 303L362 302M210 303L211 304L210 303z"/>
<path style="fill:#ffa9de; stroke:none;" d="M256 303L256 306L257 306L256 303M269 303L270 304L269 303z"/>
<path style="fill:#efe4e5; stroke:none;" d="M270 303L271 304L270 303z"/>
<path style="fill:#fcc6e7; stroke:none;" d="M347 303L348 304L347 303z"/>
<path style="fill:#ffa9de; stroke:none;" d="M361 303L362 304L361 303z"/>
<path style="fill:#fcc6e7; stroke:none;" d="M231 304L232 305L231 304z"/>
<path style="fill:#ffa9de; stroke:none;" d="M271 304L272 305L271 304z"/>
<path style="fill:#efe4e5; stroke:none;" d="M346 304L347 305L346 304z"/>
<path style="fill:#ffa9de; stroke:none;" d="M360 304L361 305L360 304z"/>
<path style="fill:#fcc6e7; stroke:none;" d="M211 305L212 306L211 305z"/>
<path style="fill:#ffa9de; stroke:none;" d="M273 305L274 306L273 305M359 305L360 306L359 305z"/>
<path style="fill:#fcc6e7; stroke:none;" d="M232 306L233 307L232 306z"/>
<path style="fill:#ffa9de; stroke:none;" d="M275 306L276 307L275 306z"/>
<path style="fill:#fcc6e7; stroke:none;" d="M358 306L359 307L358 306M212 307L213 308L212 307z"/>
<path style="fill:#ffa9de; stroke:none;" d="M277 307L278 308L277 307z"/>
<path style="fill:#efe4e5; stroke:none;" d="M278 307L279 308L278 307z"/>
<path style="fill:#fcc6e7; stroke:none;" d="M357 307L358 308L357 307M233 308L234 309L233 308z"/>
<path style="fill:#ffa9de; stroke:none;" d="M279 308L280 309L279 308z"/>
<path style="fill:#efe4e5; stroke:none;" d="M280 308L281 309L280 308M342 308L343 309L342 308z"/>
<path style="fill:#ffa9de; stroke:none;" d="M355 308L356 309L355 308z"/>
<path style="fill:#efe4e5; stroke:none;" d="M356 308L357 309L356 308z"/>
<path style="fill:#fcc6e7; stroke:none;" d="M213 309L214 310L213 309z"/>
<path style="fill:#efe4e5; stroke:none;" d="M255 309L256 310L255 309z"/>
<path style="fill:#ffa9de; stroke:none;" d="M281 309L282 310L281 309z"/>
<path style="fill:#fcc6e7; stroke:none;" d="M282 309L283 310L282 309M341 309L342 310L341 309z"/>
<path style="fill:#ffa9de; stroke:none;" d="M354 309L355 310L354 309z"/>
<path style="fill:#fcc6e7; stroke:none;" d="M234 310L235 311L234 310z"/>
<path style="fill:#ffa9de; stroke:none;" d="M256 310L257 311L256 310M284 310L285 311L284 310z"/>
<path style="fill:#efe4e5; stroke:none;" d="M285 310L286 311L285 310M339 310L340 311L339 310z"/>
<path style="fill:#ffa9de; stroke:none;" d="M340 310L341 311L340 310M352 310L353 311L352 310z"/>
<path style="fill:#efe4e5; stroke:none;" d="M353 310L354 311L353 310z"/>
<path style="fill:#fcc6e7; stroke:none;" d="M214 311L215 312L214 311M258 311L259 312L258 311z"/>
<path style="fill:#ffa9de; stroke:none;" d="M259 311L260 312L259 311M286 311L287 312L286 311z"/>
<path style="fill:#fcc6e7; stroke:none;" d="M287 311L288 312L287 311z"/>
<path style="fill:#ffa9de; stroke:none;" d="M338 311L339 312L338 311z"/>
<path style="fill:#fcc6e7; stroke:none;" d="M351 311L352 312L351 311M235 312L236 313L235 312M261 312L262 313L261 312z"/>
<path style="fill:#ffa9de; stroke:none;" d="M262 312L263 313L262 312M289 312L290 313L289 312z"/>
<path style="fill:#fcc6e7; stroke:none;" d="M290 312L291 313L290 312M336 312L337 313L336 312z"/>
<path style="fill:#ffa9de; stroke:none;" d="M349 312L350 313L349 312z"/>
<path style="fill:#fcc6e7; stroke:none;" d="M215 313L216 314L215 313z"/>
<path style="fill:#efe4e5; stroke:none;" d="M264 313L265 314L264 313z"/>
<path style="fill:#ffa9de; stroke:none;" d="M265 313L266 314L265 313M292 313L293 314L292 313z"/>
<path style="fill:#fcc6e7; stroke:none;" d="M293 313L294 314L293 313z"/>
<path style="fill:#efe4e5; stroke:none;" d="M333 313L334 314L333 313z"/>
<path style="fill:#ffa9de; stroke:none;" d="M334 313L335 314L334 313z"/>
<path style="fill:#fcc6e7; stroke:none;" d="M347 313L348 314L347 313M236 314L237 315L236 314M268 314L269 315L268 314z"/>
<path style="fill:#ffa9de; stroke:none;" d="M269 314L270 315L269 314M295 314L296 315L295 314z"/>
<path style="fill:#fcc6e7; stroke:none;" d="M296 314L297 315L296 314z"/>
<path style="fill:#efe4e5; stroke:none;" d="M297 314L298 315L297 314z"/>
<path style="fill:#fcc6e7; stroke:none;" d="M331 314L332 315L331 314z"/>
<path style="fill:#ffa9de; stroke:none;" d="M332 314L333 315L332 314M344 314L345 315L344 314z"/>
<path style="fill:#fcc6e7; stroke:none;" d="M345 314L346 315L345 314M216 315L217 316L216 315z"/>
<path style="fill:#ffa9de; stroke:none;" d="M236 315L237 316L236 315z"/>
<path style="fill:#efe4e5; stroke:none;" d="M271 315L272 316L271 315z"/>
<path style="fill:#fcc6e7; stroke:none;" d="M272 315L273 316L272 315z"/>
<path style="fill:#ffa9de; stroke:none;" d="M273 315L274 316L273 315M299 315L300 316L299 315z"/>
<path style="fill:#fcc6e7; stroke:none;" d="M300 315L301 316L300 315z"/>
<path style="fill:#efe4e5; stroke:none;" d="M301 315L302 316L301 315M327 315L328 316L327 315z"/>
<path style="fill:#ffa9de; stroke:none;" d="M328 315L329 316L328 315M342 315L343 316L342 315z"/>
<path style="fill:#efe4e5; stroke:none;" d="M343 315L344 316L343 315z"/>
<path style="fill:#ffa9de; stroke:none;" d="M217 316L218 317L217 316z"/>
<path style="fill:#efe4e5; stroke:none;" d="M237 316L238 317L237 316M275 316L276 317L275 316z"/>
<path style="fill:#fcc6e7; stroke:none;" d="M276 316L277 317L276 316z"/>
<path style="fill:#ffa9de; stroke:none;" d="M277 316L278 317L277 316M304.667 316.333L305.333 316.667L304.667 316.333z"/>
<path style="fill:#fcc6e7; stroke:none;" d="M306 316L307 317L306 316z"/>
<path style="fill:#efe4e5; stroke:none;" d="M307 316L308 317L307 316M320.667 316.333L321.333 316.667L320.667 316.333z"/>
<path style="fill:#fcc6e7; stroke:none;" d="M322 316L323 317L322 316z"/>
<path style="fill:#ffa9de; stroke:none;" d="M323.667 316.333L324.333 316.667L323.667 316.333M339 316L340 317L339 316z"/>
<path style="fill:#efe4e5; stroke:none;" d="M340 316L341 317L340 316M217 317L218 318L217 317z"/>
<path style="fill:#ffa9de; stroke:none;" d="M237 317L238 318L237 317z"/>
<path style="fill:#fcc6e7; stroke:none;" d="M280 317L281 318L280 317z"/>
<path style="fill:#ffa9de; stroke:none;" d="M281.667 317.333L282.333 317.667L281.667 317.333M335 317L336 318L335 317z"/>
<path style="fill:#fcc6e7; stroke:none;" d="M336 317L337 318L336 317z"/>
<path style="fill:#efe4e5; stroke:none;" d="M337 317L338 318L337 317M285 318L286 319L285 318z"/>
<path style="fill:#fcc6e7; stroke:none;" d="M286 318L287 319L286 318z"/>
<path style="fill:#ffa9de; stroke:none;" d="M287.667 318.333L288.333 318.667L287.667 318.333M331 318L332 319L331 318z"/>
<path style="fill:#fcc6e7; stroke:none;" d="M332 318L333 319L332 318z"/>
<path style="fill:#efe4e5; stroke:none;" d="M333 318L334 319L333 318M291 319L292 320L291 319z"/>
<path style="fill:#fcc6e7; stroke:none;" d="M292.667 319.333L293.333 319.667L292.667 319.333z"/>
<path style="fill:#ffa9de; stroke:none;" d="M294.667 319.333L295.333 319.667L294.667 319.333M324.667 319.333L325.333 319.667L324.667 319.333z"/>
<path style="fill:#fcc6e7; stroke:none;" d="M326.667 319.333L327.333 319.667L326.667 319.333z"/>
<path style="fill:#efe4e5; stroke:none;" d="M328 319L329 320L328 319M300.667 320.333L301.333 320.667L300.667 320.333z"/>
<path style="fill:#fcc6e7; stroke:none;" d="M302 320L302 321L305 321L302 320z"/>
<path style="fill:#ffa9de; stroke:none;" d="M305 320L305 321L316 321L305 320z"/>
<path style="fill:#fcc6e7; stroke:none;" d="M316 320L316 321L319 321L316 320z"/>
<path style="fill:#efe4e5; stroke:none;" d="M319.667 320.333L320.333 320.667L319.667 320.333z"/>
</svg>
